<?xml version="1.0" encoding="UTF-8"?>
<svg id="Layer_1" data-name="Layer 1" xmlns="http://www.w3.org/2000/svg" viewBox="0 0 1380 2100">
  <defs>
    <style>
      .cls-1 {
        fill: #ea242a;
      }
    </style>
  </defs>
  <path class="cls-1" d="M102.94,940.91c8.82,0,16.24,1.48,22.25,4.45,6.01,2.97,10.86,6.86,14.55,11.67,3.69,4.81,6.33,10.31,7.94,16.48,1.6,6.18,2.41,12.47,2.41,18.88,0,8.82-1.32,16.52-3.97,23.09-2.65,6.58-6.34,11.95-11.07,16.12-4.73,4.17-10.46,7.3-17.2,9.38-6.74,2.09-14.19,3.13-22.37,3.13h-18.52v68.56h-34.64v-171.75h60.62ZM92.36,1018.61c6.89,0,12.47-2.08,16.72-6.25,4.25-4.17,6.38-10.66,6.38-19.48s-1.85-15.23-5.53-19.72c-3.69-4.49-9.86-6.74-18.52-6.74h-14.43v52.2h15.4Z"/>
  <path class="cls-1" d="M231.16,940.91c14.43,0,25.66,3.65,33.68,10.94,8.02,7.3,12.03,18.4,12.03,33.32,0,11.55-2.33,20.97-6.98,28.26-4.65,7.3-11.87,11.99-21.65,14.07v.48c8.66,1.29,14.99,4.09,19,8.42,4.01,4.33,6.49,11.31,7.46,20.93.32,3.21.56,6.7.72,10.46.16,3.77.32,7.98.48,12.63.32,9.14.8,16.12,1.44,20.93.96,4.81,3.04,8.1,6.25,9.86v1.44h-37.53c-1.77-2.41-2.89-5.17-3.37-8.3s-.8-6.38-.96-9.74l-.96-32.96c-.32-6.74-2.01-12.03-5.05-15.88-3.05-3.85-8.18-5.77-15.4-5.77h-18.52v72.65h-34.64v-171.75h63.99ZM216.24,1015.96c8.34,0,14.75-1.96,19.24-5.89,4.49-3.93,6.74-10.54,6.74-19.84,0-15.88-8.02-23.81-24.05-23.81h-16.36v49.55h14.43Z"/>
  <path class="cls-1" d="M299.11,990.82c1.2-10.98,3.85-20.41,7.94-28.26,4.09-7.86,9.98-13.99,17.68-18.4,7.7-4.41,18.04-6.62,31.03-6.62s23.33,2.21,31.03,6.62c7.7,4.41,13.59,10.55,17.68,18.4,4.09,7.86,6.74,17.28,7.94,28.26,1.2,10.99,1.8,22.97,1.8,35.96s-.6,25.18-1.8,36.08c-1.2,10.91-3.85,20.29-7.94,28.14-4.09,7.86-9.98,13.87-17.68,18.04-7.7,4.17-18.04,6.25-31.03,6.25s-23.33-2.09-31.03-6.25-13.59-10.18-17.68-18.04c-4.09-7.86-6.74-17.24-7.94-28.14-1.2-10.9-1.8-22.93-1.8-36.08s.6-24.98,1.8-35.96ZM332.79,1056.25c.56,8.1,1.68,14.67,3.37,19.72s4.09,8.74,7.22,11.07c3.13,2.33,7.25,3.49,12.39,3.49s9.26-1.16,12.39-3.49c3.13-2.32,5.53-6.01,7.22-11.07,1.68-5.05,2.8-11.62,3.37-19.72.56-8.1.84-17.92.84-29.47s-.28-21.33-.84-29.35c-.56-8.02-1.68-14.59-3.37-19.72-1.68-5.13-4.09-8.86-7.22-11.19-3.13-2.32-7.26-3.49-12.39-3.49s-9.26,1.17-12.39,3.49c-3.13,2.33-5.53,6.05-7.22,11.19-1.68,5.13-2.81,11.71-3.37,19.72-.56,8.02-.84,17.8-.84,29.35s.28,21.37.84,29.47Z"/>
  <path class="cls-1" d="M495.28,940.91c8.82,0,16.24,1.48,22.25,4.45,6.01,2.97,10.86,6.86,14.55,11.67,3.69,4.81,6.33,10.31,7.94,16.48,1.6,6.18,2.41,12.47,2.41,18.88,0,8.82-1.32,16.52-3.97,23.09-2.65,6.58-6.34,11.95-11.07,16.12-4.73,4.17-10.46,7.3-17.2,9.38-6.74,2.09-14.19,3.13-22.37,3.13h-18.52v68.56h-34.64v-171.75h60.62ZM484.69,1018.61c6.89,0,12.47-2.08,16.72-6.25,4.25-4.17,6.38-10.66,6.38-19.48s-1.85-15.23-5.53-19.72c-3.69-4.49-9.86-6.74-18.52-6.74h-14.43v52.2h15.4Z"/>
  <path class="cls-1" d="M626.86,940.91l45.46,171.75h-36.08l-7.94-36.32h-45.7l-7.94,36.32h-36.08l45.46-171.75h42.82ZM622.29,1047.96l-16.6-77.22h-.48l-16.6,77.22h33.68Z"/>
  <path class="cls-1" d="M759.52,982.04c-.72-3.37-1.89-6.45-3.49-9.26-1.61-2.8-3.65-5.13-6.13-6.98-2.49-1.84-5.5-2.77-9.02-2.77-8.34,0-14.35,4.65-18.04,13.95-3.69,9.3-5.53,24.7-5.53,46.19,0,10.26.32,19.57.96,27.9.64,8.34,1.8,15.44,3.49,21.29,1.68,5.86,4.09,10.34,7.22,13.47,3.13,3.13,7.17,4.69,12.15,4.69,2.08,0,4.37-.56,6.86-1.68,2.48-1.12,4.81-2.8,6.98-5.05,2.17-2.24,3.97-5.09,5.41-8.54,1.44-3.45,2.16-7.49,2.16-12.15v-17.56h-22.85v-25.5h56.05v92.61h-25.5v-15.88h-.48c-4.17,6.74-9.18,11.51-15.03,14.31-5.86,2.8-12.87,4.21-21.05,4.21-10.58,0-19.21-1.85-25.86-5.53-6.66-3.69-11.87-9.38-15.64-17.08-3.77-7.7-6.29-17.2-7.58-28.5-1.29-11.31-1.92-24.42-1.92-39.33s.92-27.1,2.77-38.01c1.84-10.9,5.01-20,9.5-27.3,4.49-7.3,10.42-12.79,17.8-16.48,7.37-3.69,16.6-5.53,27.66-5.53,18.92,0,32.55,4.69,40.89,14.07,8.34,9.38,12.51,22.81,12.51,40.29h-33.2c0-3.21-.36-6.5-1.08-9.86Z"/>
  <path class="cls-1" d="M894.35,940.91l45.46,171.75h-36.08l-7.94-36.32h-45.7l-7.94,36.32h-36.08l45.46-171.75h42.82ZM889.78,1047.96l-16.6-77.22h-.48l-16.6,77.22h33.68Z"/>
  <path class="cls-1" d="M1025.93,940.91h39.93v171.75h-31.75v-120.27s-.48,0-.48,0l-42.34,120.27h-39.45v-171.75h31.75v117.63s.48,0,.48,0l41.86-117.63Z"/>
  <path class="cls-1" d="M1148.37,940.91c12.03,0,21.73,1.97,29.11,5.89,7.37,3.93,13.11,9.54,17.2,16.84,4.09,7.3,6.86,16.08,8.3,26.34,1.44,10.26,2.17,21.73,2.17,34.4,0,15.08-.92,28.19-2.77,39.33-1.85,11.15-5.01,20.33-9.5,27.54-4.49,7.22-10.51,12.59-18.04,16.12-7.54,3.53-17.08,5.29-28.62,5.29h-54.6v-171.75h56.77ZM1141.63,1087.16c6.09,0,10.98-1.04,14.67-3.13,3.69-2.08,6.62-5.53,8.78-10.34,2.17-4.81,3.61-11.14,4.33-19,.72-7.86,1.08-17.64,1.08-29.35,0-9.78-.32-18.36-.96-25.74-.64-7.37-1.97-13.51-3.97-18.4-2.01-4.89-4.97-8.58-8.9-11.06-3.93-2.48-9.18-3.73-15.76-3.73h-14.67v120.75h15.39Z"/>
  <path class="cls-1" d="M1304.24,940.91l45.46,171.75h-36.08l-7.94-36.32h-45.7l-7.94,36.32h-36.08l45.46-171.75h42.82ZM1299.67,1047.96l-16.6-77.22h-.48l-16.6,77.22h33.68Z"/>
</svg>